<svg xmlns="http://www.w3.org/2000/svg" xmlns:xlink="http://www.w3.org/1999/xlink" viewBox="0 0 1922.48 1281.65"><defs><style>.cls-1{fill:none;}.cls-2{isolation:isolate;}.cls-3{clip-path:url(#clip-path);}.cls-4{fill:url(#linear-gradient);}.cls-5{mix-blend-mode:multiply;}.cls-6{fill:url(#linear-gradient-2);}.cls-7{fill:url(#linear-gradient-3);}.cls-8{fill:url(#linear-gradient-4);}.cls-9{fill:#8ad4df;}.cls-10{fill:#00b5cc;}.cls-11{fill:url(#linear-gradient-5);}.cls-12{fill:url(#linear-gradient-6);}.cls-13{fill:url(#linear-gradient-7);}.cls-14{fill:url(#linear-gradient-8);}.cls-15{fill:url(#linear-gradient-9);}.cls-16{fill:url(#linear-gradient-10);}.cls-17{fill:url(#linear-gradient-11);}.cls-18{fill:url(#linear-gradient-12);}.cls-19{fill:url(#linear-gradient-13);}.cls-20{fill:url(#linear-gradient-14);}.cls-21{fill:url(#linear-gradient-15);}</style><clipPath id="clip-path"><rect class="cls-1" y="546.6" width="1922.48" height="735.05"/></clipPath><linearGradient id="linear-gradient" x1="961.24" y1="18.63" x2="961.24" y2="966.88" gradientUnits="userSpaceOnUse"><stop offset="0" stop-color="#fff"/><stop offset="0.07" stop-color="#f9fefe"/><stop offset="0.16" stop-color="#e7fafc"/><stop offset="0.27" stop-color="#caf3f7"/><stop offset="0.4" stop-color="#a1eaf1"/><stop offset="0.42" stop-color="#97e8f0"/><stop offset="1" stop-color="#42c4dd"/></linearGradient><linearGradient id="linear-gradient-2" y1="677.33" x2="1922.48" y2="677.33" gradientUnits="userSpaceOnUse"><stop offset="0" stop-color="#42c4dd"/><stop offset="0.05" stop-color="#4fcae0"/><stop offset="0.18" stop-color="#69d5e6"/><stop offset="0.33" stop-color="#7eddea"/><stop offset="0.49" stop-color="#8ce3ee"/><stop offset="0.68" stop-color="#94e7ef"/><stop offset="1" stop-color="#97e8f0"/></linearGradient><linearGradient id="linear-gradient-3" x1="-2.46" y1="632.02" x2="1920.02" y2="632.02" gradientTransform="matrix(-1, 0, 0, 1, 1920.02, 0)" gradientUnits="userSpaceOnUse"><stop offset="0" stop-color="#89d4e3"/><stop offset="0.34" stop-color="#8fdce8"/><stop offset="1" stop-color="#97e8f0"/></linearGradient><linearGradient id="linear-gradient-4" x1="3387.31" y1="728.19" x2="5309.79" y2="728.19" gradientTransform="matrix(-1, 0, 0, 1, 5309.79, 0)" gradientUnits="userSpaceOnUse"><stop offset="0" stop-color="#89d4e3"/><stop offset="1" stop-color="#42c4dd"/></linearGradient><linearGradient id="linear-gradient-5" x1="0" y1="814.99" x2="1922.48" y2="814.99" gradientTransform="matrix(1, 0, 0, 1, 0, 0)" xlink:href="#linear-gradient-4"/><linearGradient id="linear-gradient-6" x1="-2.46" y1="850.52" x2="1920.02" y2="850.52" gradientTransform="matrix(-1, 0, 0, 1, 1920.02, 0)" gradientUnits="userSpaceOnUse"><stop offset="0" stop-color="#50c8e8"/><stop offset="0.08" stop-color="#5dcbe9"/><stop offset="0.35" stop-color="#7fd4eb"/><stop offset="0.59" stop-color="#99dbed"/><stop offset="0.82" stop-color="#a8dfee"/><stop offset="1" stop-color="#ade0ee"/></linearGradient><linearGradient id="linear-gradient-7" x1="3389.78" y1="917.74" x2="5312.26" y2="917.74" gradientTransform="translate(-3389.78)" xlink:href="#linear-gradient-4"/><linearGradient id="linear-gradient-8" x1="-2.46" y1="1065.37" x2="1920.02" y2="1065.37" gradientTransform="matrix(-1, 0, 0, 1, 1920.02, 0)" xlink:href="#linear-gradient-4"/><linearGradient id="linear-gradient-9" x1="-2.46" y1="884.72" x2="1920.02" y2="884.72" gradientTransform="matrix(-1, 0, 0, 1, 1920.02, 0)" xlink:href="#linear-gradient-2"/><linearGradient id="linear-gradient-10" x1="0" y1="845.63" x2="1922.48" y2="845.63" gradientTransform="matrix(1, 0, 0, 1, 0, 0)" xlink:href="#linear-gradient-3"/><linearGradient id="linear-gradient-11" x1="3389.78" y1="928.59" x2="5312.26" y2="928.59" gradientTransform="translate(-3389.78)" xlink:href="#linear-gradient-4"/><linearGradient id="linear-gradient-12" x1="-2.46" y1="1003.47" x2="1920.02" y2="1003.47" gradientTransform="matrix(-1, 0, 0, 1, 1920.02, 0)" xlink:href="#linear-gradient-4"/><linearGradient id="linear-gradient-13" x1="0" y1="1034.12" x2="1922.48" y2="1034.12" gradientTransform="matrix(1, 0, 0, 1, 0, 0)" xlink:href="#linear-gradient-6"/><linearGradient id="linear-gradient-14" x1="3387.31" y1="1092.1" x2="5309.79" y2="1092.1" xlink:href="#linear-gradient-4"/><linearGradient id="linear-gradient-15" x1="0" y1="1157.27" x2="1922.48" y2="1157.27" gradientTransform="matrix(1, 0, 0, 1, 0, 0)" xlink:href="#linear-gradient-4"/></defs><title>background</title><g class="cls-2"><g id="Layer_2" data-name="Layer 2"><g id="Stylesheet"><g class="cls-3"><rect class="cls-4" width="1922.48" height="1281.65"/><g class="cls-5"><path class="cls-6" d="M1922.48,878.93V559.81S1687,411.31,1017.31,537.6C667.42,603.58,302.79,389,0,517.7V878.93Z"/><path class="cls-7" d="M0,743.71V604.39s235.5-148.51,905.17-22.21c349.89,66,714.52-148.58,1017.31-19.9V743.71Z"/><path class="cls-8" d="M1922.48,844.25V704.92S1577,528,717,662.81C365.7,717.9,143.33,598,0,662.81V844.25Z"/><path class="cls-9" d="M0,751.82v19.44s438.59,85.08,798.58,18.06c522.1-97.2,898.45-53.7,1123.9,17.58V696.74S1477.58,576.86,1107,654.61C773.41,724.59,494.61,797.18,0,751.82Z"/><path class="cls-10" d="M0,887.91V743.71s56.07-40.82,446.53,31.22c301.42,55.62,927.9-296.87,1475.93-31.2l0,108.54Z"/><path class="cls-11" d="M0,959.19V858.75s388.26,35.64,965.15-106.92,841.46-58.33,957.33-35.65v243Z"/><path class="cls-10" d="M0,887.91v19.44s434.34,37.86,794.34-29.16c522.1-97.2,902.69-51.85,1128.14,19.44v-64.8S1477.58,712.94,1107,790.7C773.41,860.68,494.61,933.27,0,887.91Z"/><path class="cls-12" d="M1922.48,966.58V827.25S1577,650.29,717,785.14C365.7,840.22,143.33,757.66,0,822.47V966.58Z"/><path class="cls-13" d="M0,1033.8V894.47s345.46-177,1205.49-42.1c351.29,55.08,573.66-64.8,717,0V1033.8Z"/><path class="cls-9" d="M1922.48,930.11v19.44s-438.59,85.08-798.58,18.06C601.8,870.41,225.45,913.91,0,985.2V875s444.9-119.88,815.53-42.12C1149.07,902.89,1427.87,975.47,1922.48,930.11Z"/><path class="cls-10" d="M1922.48,1066.2V907.45s-136.88-58.32-572,25.92C1049.48,991.66,548,719.53,0,985.2v45.36Z"/><path class="cls-14" d="M1922.48,1281.65V1037s-388.26,35.65-965.15-106.92S115.87,871.79,0,894.47v387.18Z"/><path class="cls-10" d="M1922.48,1066.2v19.44s-434.34,37.86-794.34-29.16C606,959.28,225.45,1004.64,0,1075.92v-64.8S444.9,891.24,815.53,969C1149.07,1039,1427.87,1111.56,1922.48,1066.2Z"/></g><g class="cls-5"><path class="cls-15" d="M0,1058.62V783.34s235.5-128.1,905.17-19.16C1255.06,821.1,1619.69,636,1922.48,747v311.6Z"/><path class="cls-16" d="M1922.48,942V821.79s-235.5-128.1-905.17-19.15C667.42,859.56,302.79,674.47,0,785.47V942Z"/><path class="cls-17" d="M0,1028.71V908.52S345.46,755.87,1205.49,872.2c351.29,47.51,573.66-55.9,717,0v156.51Z"/><path class="cls-9" d="M1922.48,949v16.76s-438.59,73.4-798.58,15.58C601.8,897.47,225.45,935,0,996.49v-95s444.9-103.41,815.53-36.34C1149.07,925.49,1427.87,988.1,1922.48,949Z"/><path class="cls-10" d="M1922.48,1066.37V942s-56.07-35.21-446.53,26.93C1174.53,1016.89,548.05,712.82,0,942l0,93.62Z"/><path class="cls-18" d="M1922.48,1127.85v-86.64S1534.22,1072,957.33,949,115.87,898.67,0,918.23v209.62Z"/><path class="cls-10" d="M1922.48,1066.37v16.76s-434.34,32.67-794.34-25.15C606,974.13,225.45,1013.26,0,1074.75v-55.9s444.9-103.41,815.53-36.33C1149.07,1042.88,1427.87,1105.5,1922.48,1066.37Z"/><path class="cls-19" d="M0,1134.23V1014s345.46-152.65,1205.49-36.32c351.29,47.52,573.66-55.9,717,0v156.51Z"/><path class="cls-20" d="M1922.48,1192.22V1072S1577,919.38,717,1035.71c-351.29,47.51-573.66-55.9-717,0v156.51Z"/><path class="cls-9" d="M0,1102.77v16.77s438.59,73.4,798.58,15.58c522.1-83.85,898.45-46.32,1123.9,15.17v-95s-444.9-103.41-815.53-36.34C773.41,1079.29,494.61,1141.9,0,1102.77Z"/><path class="cls-10" d="M0,1220.17v-137s136.88-50.3,572,22.37c301,50.28,802.49-184.47,1350.52,44.7v39.13Z"/><path class="cls-21" d="M0,1281.65V1195s388.26,30.75,965.15-92.23,841.46-50.31,957.33-30.75v209.62Z"/><path class="cls-10" d="M0,1220.17v16.76s434.34,32.67,794.34-25.15c522.1-83.85,902.69-44.72,1128.14,16.77v-55.9s-444.9-103.41-815.53-36.34C773.41,1196.68,494.61,1259.29,0,1220.17Z"/></g></g></g></g></g></svg>