<svg xmlns="http://www.w3.org/2000/svg" viewBox="0 0 391.19 158.75"><defs><style>.cls-1{isolation:isolate;}.cls-2{opacity:0.3;}.cls-2,.cls-4,.cls-5{mix-blend-mode:multiply;}.cls-3{fill:#fff;}.cls-4{opacity:0.4;}.cls-5{opacity:0.8;}.cls-6{fill:#0a7eab;}</style></defs><title>logo - white</title><g class="cls-1"><g id="Layer_2" data-name="Layer 2"><g id="Stylesheet"><g class="cls-2"><path class="cls-3" d="M233.76,149.51c0,5.1-52.33,9.24-116.89,9.24S0,154.61,0,149.51s52.32-9.23,116.87-9.23S233.76,144.41,233.76,149.51Z"/></g><path class="cls-3" d="M76.09,48.35C86.36,31.6,112.5,0,112.5,0s26.14,31.6,36.4,48.35c13.95,22.75,16.58,39.26,12.22,54.87-3.42,12.24-17.61,36.4-48.62,36.4s-45.21-24.16-48.62-36.4C59.51,87.61,62.15,71.1,76.09,48.35Z"/><g class="cls-4"><path class="cls-3" d="M161.12,103.22c4.36-15.61,1.73-32.12-12.22-54.87-5.14-8.4-14.28-20.52-22.11-30.53-10.26,9.67-26.83,25.68-35.36,36C73.87,75.16,68.79,91.7,71,108.32a52.43,52.43,0,0,0,5.13,16c7.89,8.36,19.69,15.33,36.35,15.33C143.51,139.62,157.7,115.46,161.12,103.22Z"/></g><g class="cls-4"><path class="cls-3" d="M63.88,103.22C59.51,87.61,62.15,71.1,76.09,48.35,81.24,40,90.37,27.83,98.2,17.82c10.26,9.67,26.83,25.68,35.37,36,17.56,21.3,22.63,37.84,20.4,54.46a52.66,52.66,0,0,1-5.12,16c-7.89,8.36-19.69,15.33-36.35,15.33C81.49,139.62,67.29,115.46,63.88,103.22Z"/></g><g class="cls-4"><path class="cls-3" d="M141.23,37c-11.6,7-27,16.53-35.88,23.42-21.07,16.36-29.38,30.88-30.8,47a51.39,51.39,0,0,0,1.63,16.92c7.89,8.33,19.69,15.28,36.32,15.28,31,0,45.2-24.16,48.62-36.4,4.36-15.61,1.73-32.12-12.22-54.87C146.86,45,144.19,41.1,141.23,37Z"/></g><g class="cls-4"><path class="cls-3" d="M83.76,37c11.6,7,27,16.53,35.88,23.42,21.08,16.36,29.38,30.88,30.8,47a51.39,51.39,0,0,1-1.63,16.92c-7.89,8.33-19.68,15.28-36.31,15.28-31,0-45.21-24.16-48.63-36.4C59.51,87.61,62.15,71.1,76.09,48.35,78.14,45,80.8,41.1,83.76,37Z"/></g><g class="cls-5"><path class="cls-3" d="M112.5,45.79,62.39,95.89a52.32,52.32,0,0,0,1.49,7.33c2.61,9.38,11.58,25.75,29.57,32.9L129,100.53Z"/></g><path class="cls-6" d="M96.34,67.25c4.55-7.43,16.16-21.46,16.16-21.46s11.6,14,16.16,21.46c6.19,10.1,7.36,17.43,5.42,24.36-1.51,5.43-7.81,16.16-21.58,16.16S92.43,97,90.91,91.61C89,84.68,90.15,77.35,96.34,67.25Z"/><path class="cls-3" d="M211,59.06v-45h13.31q8,0,11.58,2.76t3.61,8.88q0,6.15-3.61,8.91t-11.58,2.77h-10V59.06Zm3.33-24.31h10q6.63,0,9.32-2.1c1.8-1.4,2.69-3.71,2.69-6.92s-1-5.65-2.86-7.07-4.95-2.06-9.15-1.91h-10Z"/><path class="cls-3" d="M248.07,59.06V12.24h3V59.06Z"/><path class="cls-3" d="M275.28,59.71a13.72,13.72,0,0,1-10.83-4.58q-4-4.56-4-12.26,0-7.44,4.08-11.87a14.08,14.08,0,0,1,10.9-4.43,12.52,12.52,0,0,1,7,1.93,11.15,11.15,0,0,1,4.35,5.08V27.37h3V59.06h-3V52.42a11.93,11.93,0,0,1-11.42,7.29Zm.12-2.54a9.92,9.92,0,0,0,8.32-3.84q3-3.86,3-10.46,0-6.27-3.07-10a10.09,10.09,0,0,0-8.23-3.75,10.87,10.87,0,0,0-8.65,3.75q-3.24,3.75-3.24,10,0,6.52,3.23,10.41A10.65,10.65,0,0,0,275.4,57.17Z"/><path class="cls-3" d="M310.89,59.71a18.25,18.25,0,0,1-11-3.62l1.15-2.35a5.68,5.68,0,0,0,.47.33l.75.48c.19.12.5.3.92.52s.81.42,1.16.57.79.33,1.31.53a11.4,11.4,0,0,0,1.53.46c.5.12,1.06.21,1.68.3a14.91,14.91,0,0,0,1.87.12q8.37,0,8.37-6.09a5.23,5.23,0,0,0-1.28-3.83,10.69,10.69,0,0,0-4.43-2.25l-6.36-2A13.29,13.29,0,0,1,301.54,40a7,7,0,0,1-1.77-5.15,7,7,0,0,1,3.09-6.25q3.09-2.06,8.49-2.05a17.88,17.88,0,0,1,9.45,2.31l-1,2.26a17.36,17.36,0,0,0-8.46-2q-8.52,0-8.59,5.53a4.85,4.85,0,0,0,1.1,3.53,11,11,0,0,0,4.34,2.09l6.21,1.94a14.4,14.4,0,0,1,5.82,3.09A7,7,0,0,1,322,50.41a9.49,9.49,0,0,1-.87,4.18,7.55,7.55,0,0,1-2.39,2.92,11,11,0,0,1-3.52,1.66A17.15,17.15,0,0,1,310.89,59.71Z"/><path class="cls-3" d="M343.32,59.09l-.73,0h-.7a20.39,20.39,0,0,1-2.67-.27,13.18,13.18,0,0,1-2.07-.49,9.39,9.39,0,0,1-1.56-.69,4.64,4.64,0,0,1-1.11-.9,5.74,5.74,0,0,1-.74-1.08,5.24,5.24,0,0,1-.45-1.24,13.59,13.59,0,0,1-.21-1.37A14.7,14.7,0,0,1,333,51.5V29.38h-6.24v-2H333V18.29l3-.9v10h7.19v2H336V50.81c0,.39,0,.86.06,1.42a8.26,8.26,0,0,0,.15,1.21c.06.24.16.55.28.92a1.75,1.75,0,0,0,.43.77c.17.15.39.32.67.53a2.41,2.41,0,0,0,.92.42c.34.07.75.15,1.24.23a12.31,12.31,0,0,0,1.57.15c.57,0,1.22,0,2,0Z"/><path class="cls-3" d="M352.15,17.49v-3.4h3v3.4Zm0,41.57V27.37h3V59.06Z"/><path class="cls-3" d="M380.32,59.71q-7.26,0-11.6-4.39t-4.34-11.77q0-7.75,4.42-12.37t11.82-4.61a17.52,17.52,0,0,1,5.38.83,11.76,11.76,0,0,1,4.23,2.25l-1,2.23q-3.18-2.77-8.59-2.78A12.35,12.35,0,0,0,371.05,33q-3.58,3.93-3.58,10.53,0,6.21,3.49,9.92a12.22,12.22,0,0,0,9.36,3.7,15.46,15.46,0,0,0,9.82-3.27L391.19,56a12.44,12.44,0,0,1-4.68,2.72A18.82,18.82,0,0,1,380.32,59.71Z"/><path class="cls-3" d="M228.42,135.61q-9.57,0-15.25-6.24t-5.69-16.74q0-10.68,5.67-17t15.27-6.36q9.47,0,15.14,6.38t5.68,17q0,10.47-5.67,16.72T228.42,135.61Zm0-2.66q8,0,12.7-5.53t4.72-14.79q0-9.48-4.74-15.12a15.7,15.7,0,0,0-12.68-5.63,15.87,15.87,0,0,0-12.77,5.63q-4.77,5.64-4.77,15.12,0,9.27,4.79,14.79A16,16,0,0,0,228.42,133Z"/><path class="cls-3" d="M271.54,135.61q-7.26,0-11.6-4.39t-4.34-11.76q0-7.75,4.42-12.37t11.83-4.62a17.81,17.81,0,0,1,5.37.83,11.62,11.62,0,0,1,4.23,2.26l-1,2.22q-3.18-2.77-8.58-2.78a12.36,12.36,0,0,0-9.58,3.92q-3.57,3.93-3.58,10.54,0,6.2,3.49,9.91a12.26,12.26,0,0,0,9.36,3.71,15.45,15.45,0,0,0,9.82-3.28l1.05,2.07a12.29,12.29,0,0,1-4.68,2.72A18.78,18.78,0,0,1,271.54,135.61Z"/><path class="cls-3" d="M303.23,135.61q-7.32,0-11.69-4.45t-4.37-11.89q0-7.67,4.17-12.23t11.15-4.57a13.22,13.22,0,0,1,10.19,4.09q3.79,4.09,3.8,11v1.79H290.26c-.05,4.18,1.11,7.52,3.45,10a12.44,12.44,0,0,0,9.52,3.76,17.64,17.64,0,0,0,5.74-1,16.65,16.65,0,0,0,4.94-2.63l1.11,2.13a16.55,16.55,0,0,1-5.38,2.91A20,20,0,0,1,303.23,135.61Zm-12.79-18.5h23.5a13.43,13.43,0,0,0-3.41-8.82,10.57,10.57,0,0,0-8-3.29,11.27,11.27,0,0,0-8.34,3.29A13.49,13.49,0,0,0,290.44,117.11Z"/><path class="cls-3" d="M337,135.61A13.72,13.72,0,0,1,326.19,131q-4-4.57-4-12.26c0-5,1.36-8.92,4.08-11.88a14.1,14.1,0,0,1,10.9-4.43,12.54,12.54,0,0,1,6.95,1.93,11.26,11.26,0,0,1,4.35,5.08v-6.21h3V135h-3v-6.64A11.93,11.93,0,0,1,337,135.61Zm.13-2.53a10,10,0,0,0,8.32-3.85q3-3.84,3-10.45,0-6.27-3.07-10a10.09,10.09,0,0,0-8.23-3.75,10.87,10.87,0,0,0-8.65,3.75q-3.24,3.75-3.24,10,0,6.51,3.23,10.4A10.65,10.65,0,0,0,337.14,133.08Z"/><path class="cls-3" d="M364.13,135V107.78l-.18-4.51h2.75l.3,6.36a11.54,11.54,0,0,1,4.91-5.31,15.3,15.3,0,0,1,7.57-1.85q11.37,0,11.37,13.28V135h-3V115.75q0-10.75-8.34-10.75a13.22,13.22,0,0,0-7.87,2.33,11.58,11.58,0,0,0-4.45,6.69V135Z"/></g></g></g></svg>